<svg xmlns="http://www.w3.org/2000/svg" fill-rule="evenodd" stroke-linejoin="round" stroke-miterlimit="2" clip-rule="evenodd" viewBox="0 0 601 507">
  <defs/>
  <path fill="#00568b" d="M71.23 506.79l217.04-52.83.02-.01 3.65-.73a56.39 56.39 0 0130.08 2.65c1.08.33 85.92 26.86 107.46 32.51 22.6 5.94 53.76 13.14 76.47 18.4h-3.6c-22.35-5.18-51.6-11.96-73.08-17.6-21.68-5.7-107.5-32.54-107.5-32.54h-.02a55.6 55.6 0 00-29.65-2.61l-3.64.72-213.78 52.04h-3.45zm45.53 0l174.33-41.3h.02a58.67 58.67 0 0129.9 2.12l.67.23c1.11.32 104.74 30.52 114.3 32.9 4.83 1.22 14.46 3.42 25.96 6.05h-3.64c-9.97-2.28-18.19-4.17-22.51-5.25-9.62-2.4-114.35-32.92-114.35-32.92l-.01-.01-.69-.24a57.9 57.9 0 00-29.47-2.09l-170.98 40.5h-3.53zm177.48-73.42a57.2 57.2 0 0127.22 2.18c25.06 8.34 77.87 25.81 87.72 28.38 13.01 3.38 85.35 20.81 105.65 25.75 12.07 2.94 32.3 9 51.88 17.1h-2.13a384.86 384.86 0 00-49.94-16.3c-20.3-4.95-92.65-22.38-105.66-25.77-9.86-2.56-62.7-20.04-87.78-28.4a56.48 56.48 0 00-26.84-2.14l-25.97 4.22-1.45 12.9 28.45-7h.02a47.9 47.9 0 0123.55 1.36c23.88 7.55 80.35 25.2 84.77 26.61 5.73 1.82 93.9 24.2 110.03 26.79 5.98.97 16.25 3.93 27.41 7.74h-2.52c-10.22-3.42-19.48-6.04-25.02-6.94-16.15-2.6-104.4-25-110.14-26.82-4.43-1.4-60.9-19.05-84.78-26.6a46.98 46.98 0 00-23.14-1.33l-29.01 7.13a.59.59 0 01-.23-.01s-27.06-8.86-43.99-14.84c-16.7-5.92-47.93-.85-48.45-.77L2.14 470.96l-.16-.79 171.75-34.36h.02s31.88-5.22 48.87.8c15.6 5.52 39.82 13.47 43.5 14.68l1.46-12.98-.06-.02a932.06 932.06 0 00-10.4-3.56l-.11-.04-.17.05-.03-.11c-8.27-2.8-20.32-6.79-33.15-10.78-23.33-7.26-55.75-.51-55.75-.51S36.6 450.94 9.76 456.86c-2.67.58-4.3.95-4.65 1.06h-.03l.06-.03-.45-.67c.03-.02.15-.08.36-.13.58-.14 2.14-.5 4.54-1.03l27.3-5.81 130.86-27.7s32.52-6.76 56.02.48l.14.04 25.75 8.38 18.4 6.17 26.18-4.25zm244.04 44.23h-.04l-.12-.04-.17-.06h-.03.03l.29.1.06.01h-.02zm-30-268.1l26.59 266.28.06.02a275.4 275.4 0 0113.3 4.1l.06.02-28.47-261.58-11.54-8.83zm25.75 266.04l-26.64-266.72-12.48-9.56 24.89 272.78.31.07 5.3 1.25 1.46.35.99.23 1.24.3c1.65.41 3.29.85 4.93 1.3zm-30.93-6.63l-.2-.04.01.1-.8.07-.04-.37-.36-.08-.25-.07-.22-.05-.49-.12-.29-.07-.25-.05-18.31-4.4-.17-.04-.49-.12h-.02l.68.16c6.1 1.48 12.2 2.94 18.3 4.4l.55.12.7.17 1.65.39 14.48 3.44.11.03 2.05.48.35.08 2.02.48.63.15 2.49.58 1.46.35.44.1-4.39-1.03-.17-.04-.46-.1-1.54-.37-.48-.12-.17-.04-.18-.04-2.05-.48-.03-.01-.08-.02c-4.18-.99-9.1-2.15-14.48-3.44zm-.26-.9c5.3 1.27 10.61 2.52 15.91 3.78l.22.05-24.93-273.25-2.06-1.57-11.37-8.72 22.23 279.71zm-14.24-44.06h-.01l8.15 5.24c.1.08.18.2.19.33l.35 8.5c0 .14-.07.28-.2.36a.4.4 0 01-.4.02l-5.7-2.91 1.61 16.56a.41.41 0 01-.17.36.4.4 0 01-.4.05l-14.22-5.9a.4.4 0 01-.25-.35l-1.05-17.7.76-.03-4.56-2.34-2.2.44.4-.02 1.45 25.84 24.22 9.14-2.2-23.64.82-.08 2.25 24.3a.43.43 0 01-.15.35.49.49 0 01-.24.1c-.44.02-8.4.7-12.83.99 6.2 1.5 12.23 2.94 17.79 4.26l-22.3-280.37a.41.41 0 01.22-.39.4.4 0 01.44.04l11.37 8.71-1.1-12a.42.42 0 01.22-.4.42.42 0 01.45.05l8.41 6.77-.3-7.04-31.14-25.97 20.32 266.73zm6.6 37.95l-23.29-8.8-19.54 2.66.24.07a8737.53 8737.53 0 0028.8 7.05c.14.02.8-.02 1.75-.07 3.06-.18 9.05-.67 12.05-.91zm-25.11-35.23l-3.53.71.87 17.92a.4.4 0 01-.35.42l-35.25 4.8.17.06c2.99.78 5.96 1.55 8.96 2.31l9.14 2.32.14.03 21.3-2.9-1.45-25.67zm-435.94 24.1l-1.78.38h.03l1.75-.38.9-.2.29-.05.27-.06-1.46.31zm443.17-22.26l1.03 17.4 13.36 5.55-1.58-16.41-12.8-6.54zm-11.56-.97l-66.23 13.34.09.02 6.18 2 4.8 1.52 4.46 1.4 1.58.49 1.56.47 2.42.7c.89.26 1.78.5 2.66.74 2.1.59 4.2 1.16 6.31 1.72l.19.05 36.82-5.02-.84-17.43zM48.67 447.69l-3.06.64.68-.14.15-.03 2.23-.47.32-.07-.22-.07L152.9 75.28l-7.68 10.05-105.6 364.28.1-.03-2.83.6.85-.17.56-.12.42-.1 105.7-364.63L139 71.8 25.86 452.55l.6-.13 5.91-1.27h.03l1.46-.3 1.2-.27.55-.12 2.13-.45 1.99-.43 2.32-.49 1.84-.39.6-.12 1.8-.39 2.38-.5 2.44-.52 1.21-.26.75-.16 1.52-.32 1.57-.34 1.23-.26 1.15-.23 2.88-.62 2.61-.56 2.08-.43.47-.1 4.84-1.03 2.33-.5-2.33.5-3.36.71-3.34.7-3.3.71-3.26.7-3.22.67-3.16.67.54-.11.08-.01.67-.15 1.87-.4 1.22-.26.62-.12.61-.14.77-.16.38-.07.44-.1.76-.17 99.6-357.73-5.4-13.01-104.3 372.9.57-.14.9-.18-2.44.52zm16.05-3.41l1.39-.3.3-.06.17-.03 1.48-.32 3.36-.7.8-.17-.3-.08 96-364.43-7.79 9.57-99.5 357.39.79-.17 2.5-.53.11-.03.69-.14zm325.21-207.46l-10-7.12-4.51 203.3.32.1 11.88 3.9c3.43 1.13 6.87 2.24 10.31 3.35l.02.01 74.37-14.97-.67-11.1c-6.18 1.2-73.22 14.25-74.04 14.58a.38.38 0 01-.38-.04c-.12-.07-.18-.2-.19-.33l-1.55-194.48-4.74 2.82V437h-.82V236.82zm82.56 177.75l.65 10.89 23.29 11.9-.3-7.6-23.64-15.2zm-97.88 18.16l4.66-210.23-3.51-2.38-5.26 211.26 4.1 1.35zm-4.92-1.63l5.26-210.99-4.46 2.77-5.58 206.65.31.1c1.43.48 2.85.95 4.28 1.41l.19.06zM221.35 153.63l22.3-10.81c.13-.07.3-.06.42.04.12.08.18.24.15.39L200 412.59a.4.4 0 01-.32.34l-82.76 17.7a.4.4 0 01-.37-.11.4.4 0 01-.1-.38l57.76-253.48a.4.4 0 01.22-.27l24.4-11.84 22.5-10.91.03-.01zM117.36 429.7l8.2-1.76 56.13-243.98-6.85-6.43-57.48 252.17zm125.88-.44h.04-.04zm120.86 0l5.57-206.41-5.33-3.92-7.66 207.88.22.06c2.3.78 4.61 1.54 6.9 2.3l.3.09zm-123.37-.82l.08.02.2.07.31.1.06.01.03.01-.4-.12-.32-.11.04.02zm157.28-.5h.06l.07-.02.05-.01h.03l.03-.01.05-.01.09-.02.05-.01h.02l-.07.01-.14.03h-.06l-.12.04H398zM195.8 178.22l-13.31 5.9-56.06 243.64 18.02-3.85h-.02l51.37-245.69zm229.03 244.4l.27-.05.67-.14-.1.01-2.6-195.76-13.83 6.66a.38.38 0 01-.39-.02.39.39 0 01-.19-.35l-.1-9.24c0-.16.08-.3.22-.38l7.81-3.9-.48-157.2a17.27 17.27 0 016.55-13.6l27.22-21.59a.46.46 0 01.18-.08l-.29-5.58c-2.97 2.2-16.34 12.22-28.13 21.74-13.39 10.81-13.42 21.73-13.38 29.17.04 9.15.35 34.01.35 34.01a.4.4 0 01-.22.36.4.4 0 01-.43-.03l-6.98-5.08.34 57.15a.4.4 0 01-.24.37.4.4 0 01-.42-.06l-6.08-5.03a.43.43 0 01-.15-.31l.27-57.87-5.18-5.18-.34 58.36c0 .16-.09.3-.24.36a.39.39 0 01-.42-.04l-7.1-5.37a.41.41 0 01-.17-.33l1.03-59.5-3.53-3.26-1.2 59.13c0 .15-.1.3-.24.36a.39.39 0 01-.42-.05l-8.85-7.11a.42.42 0 01-.15-.33l2.24-59.67-11.82-10.65-2.02.6 10.88 9.39c.1.08.15.2.14.33l-15.94 352.2.26.09c1.3.43 2.61.85 3.92 1.3l.31.1 8.2-222.74c.02-.15.1-.28.24-.35a.4.4 0 01.42.04l42.43 30.81c.1.08.17.2.17.33l1.55 191.13.17-.04.36-.07.28-.06.25-.04.12-.02.46-.1.46-.09.1-.02.98-.2 1-.19.56-.1.08-.03.17-.03 7.66-1.51 1.19-.23.38-.08h.03l1.18-.24.53-.1zM305.9 20.6l-.16 10.3 16.08 13.62 38.6 32.76c.1.08.14.2.14.32L343.38 422.1l-.8-.05 17.15-344.27-37.84-32.11-1.36 15.16.49-.65 26.02 19.79c.1.08.17.2.16.34l-22.19 336.06 1.67.45.03.01.2.07.6.2 1.89.63 4.97 1.66 15.99 5.32.22.07L366.5 73.01l-60.6-52.4zM199 166.93l-53.69 256.8 27.87-5.96 45.54-250.67-12.53 6.03-50.7 248.34-.81-.16 50.7-248.31-6.38-6.07zm66.77 253.82l22.04-5.09 33.32-370.63-11.77-9.99-43.6 385.71zm-91.73-3.16l8.82-1.89 46.21-252.87-7.3-7.94-47.73 262.7zM320.53 60.84l-31.89 354.63.9-.2v-.02l2.67-.5a70.05 70.05 0 0131.24 1.2l.76.21 22.16-335.68-25.84-19.64zm-79.41 96.33l-11.25 5.8-46.15 252.54 15.5-3.32 41.9-255.02zm138.82 71.55l10.42 7.4 4.78-2.83-15.07-10.25-.13 5.68zm-15.57-10.77l5.74 4.2 4.52-2.8-10.05-6.83-.2 5.43zm139.84-23.07l1.21 11.41 2.21 1.7.49-.05.04.45 7.04 5.4-.6-10.56-10.39-8.35zm-11.6 1.6l11.92 9.13-1.2-11.45-11.79-9.46 1.08 11.79zm-317.3-19.63l6.92 6.49 13.78-6.11 2.43-11.59-23.13 11.21zm24.05-11.66l-.16.8 6.7 6.37 13-6.27 2.07-11.38-21.6 10.48zm22.83-11.06l7.41 8.06 11.68-6.02 2.01-12.28-21.1 10.24zM449.09 7.79c-4.65 3-35.74 23.4-47.92 41.67-11.52 17.3-9.68 40.18-9.48 42.18l3.71 3.71c.08.08.12.19.12.3l-.27 57.83 5.26 4.36-.33-56.44-4.3 1.99-.33-.74 3.48-1.62c-.12-1.75-1.65-23.8 1.67-36.11 3.33-12.3 9.42-21.49 24.96-33.53 15.44-11.98 23.57-18.05 23.57-18.05l.16.22-.3-5.77zm-60.37 82.48l-5.76 2.43-.88 50.71 6.3 4.77.34-57.9zm60.7-76.06c-1.57 1.18-9.51 7.16-23.26 17.82-15.35 11.9-21.4 20.94-24.67 33.1-3.16 11.72-1.89 32.36-1.66 35.53l.57-.27c.14-.06.3-.05.41.04l6.98 5.08c-.05-4.36-.3-25.03-.34-33.2-.03-7.6.01-18.76 13.69-29.82 12.56-10.13 26.9-20.82 28.6-22.09l-.32-6.2zm-.37-7.36l-.26-5.32c-2.87 1.78-16.4 10.57-41.22 32.18-20.52 17.86-23.22 42.01-23.24 57.53l4.62-1.95.02-.01a.41.41 0 01.44.1l1.4 1.37c-.34-4.98-.99-25.72 9.69-41.74 12.67-19 45.68-40.32 48.55-42.16zm1.86 20.65l7.16 6.37-.46-6.17-7-6.15.3 5.95zm-152.1-2.49l6.13 5.2.14-9.67-6.26 4.47zm151.74-4.59l6.97 6.11-.47-6.1-6.79-5.83.3 5.82zm-.35-6.94l6.76 5.79-.4-5.41-6.63-5.84.27 5.46zm-.6-11.72l.27 5.12 6.6 5.82-.42-5.43-6.44-5.51zm87.98 475.64l-.02-.01-.16-.04-.14-.04-.03-.01-.02-.01-.3-.09h-.02l-.34-.1h-.03l-.09-.03-.2-.06h-.01l-.01-.01h.03l.28.1h.06l.32.1.31.09.05.02.3.08.04.02-.02-.01zm-519-23.29l5.95-1.28.14-.03.28-.05L137.93 72.58l-7.64 9.98L16.42 454.57h.06l.1-.03 1-.21 1-.22zm24.06-5.14l1.25-.27.3-.07.3-.05-1.85.39-.59.12.59-.12zm214.02-15.25l.03.01-.03-.01zm-.64-.21l-.71-.25-.07-.03.07.03.1.03.2.07.32.1.09.05h0zm-1.5-.51l-.69-.24-.74-.24.52.16.13.05.1.03.1.04.18.06.38.13h.03zm-15.15-5.01l.08.03h.03l-.11-.03zm11.34 3.73l-.82-.28-.75-.24.75.24.1.04.4.13.2.07.12.04zm-7.83-2.58l-.46-.16-.42-.13h.01l.03.02.38.11.17.06.06.02.06.02.17.06zm1.83.6l.14.04.28.1.33.1.14.05.88.3.14.04.3.1.29.1.14.03.08.03.73.25h.05l.13.06.34.1.25.1.13.03-.85-.28-.86-.29-.87-.28-.88-.3-.89-.28-.09-.03.23.07.61.2.2.07.75.25.21.07.59.2.22.06.73.25.18.06.59.2.21.06.7.23.15.05.6.2.2.07.72.24.08.02.44.15.16.06.1.04.1.02.16.05.47.16.05.02-.77-.25-.8-.27h-.01l.1.02.6.2.2.07.63.21.06.02h.01l.65.22.2.07.56.19.1.04.64.2.17.06.52.18.13.05.6.2.38.13 31.96-8.18h.03l3.12-.56a71.81 71.81 0 0130.64 1.19l2.6.67.03.01s54.62 20.3 71 24.46c16.4 4.16 72.09 20.03 96.54 25.23 17.14 3.65 55.52 14.07 82.12 25.97 3.05 1.36 5.94 2.75 8.63 4.15h-1.78a160.52 160.52 0 00-7.18-3.4c-26.56-11.89-64.85-22.28-81.96-25.92-24.46-5.21-80.17-21.08-96.57-25.25-16.22-4.12-69.89-24.03-71.06-24.47l-2.57-.66a71 71 0 00-30.3-1.18l-3.1.55-30.74 7.87-8.79-2.88-12.38-4.14 27.65-6.37 43.63-386.15.6.07-3.71-3.15h-.53v-.44l-18.38-15.6-56.63 408.37-.8-.12 56.61-408.27-113.1 66.67 4.9 8.52c.05.09.07.2.04.3L89.83 438.97h-.01l-1.33.28.45-.09 87.8-348.06-7.81-13.56-96.14 365.03.33-.07.63-.14 3.7-.77 11.04-2.34 1.33-.28-52.94 11.28-21.37 4.52L129.5 82.39l-5.07-12.36.34-1.07L.02 459.16v-2.67c12.31-38.46 114.06-356.8 123.3-385.68l.66-2.1-.66 2.1-8.3 10.37-115 354.68v-2.64l114.2-352.24-4.4-12.62L.01 395.56V393L108.66 69.22l-7.86 10.06L.02 375.95v-2.53L100 79.09l-5.42-12.27L.02 338.87v-2.49L92.73 69.66l-5.12 8.9L.02 323v-2.4L86.8 78.41 80.37 66.7.02 286.38V284L75.93 76.49l-1.15 2.58a.41.41 0 01-.36.23.4.4 0 01-.37-.21l-6.53-12.4-5.37 14.03L.02 242.77v-2.28l61.3-159.88L53.65 67 .02 201.82v-2.2L47.54 80.14l-.02.01L40 68.83.02 165.1v-2.13L34.57 79.8l-6.78-8.83-27.77 63.4v-2.02l22.64-51.69-.23.18-6.35-8.18-4.46 9.96-11.6 25.92v-2l10.38-23.2-5.28-7.53-5.1 10.87V84.2l.18.18 4.48-9.57a.42.42 0 01.33-.23c.15-.01.29.06.38.17l5.4 7.73.08-.2 4.74-10.58a.4.4 0 01.7-.08l6.59 8.49 4.42-10.1a.39.39 0 01.32-.24.4.4 0 01.38.16l6.91 9 4.62-11.13a.4.4 0 01.33-.25.4.4 0 01.38.18l7.64 11.53 5.3-13.36c.06-.14.2-.24.36-.26a.4.4 0 01.38.22l7.76 13.76 5.38-14.06a.4.4 0 01.36-.26.4.4 0 01.38.21l6.56 12.45 5.56-12.42a.4.4 0 01.35-.24.4.4 0 01.37.21l6.59 12.03 6.93-12.04a.4.4 0 01.38-.2c.14 0 .28.1.35.24l5.61 12.74 8.96-11.44a.39.39 0 01.39-.14c.15.02.26.11.31.26l4.62 13.18 9.25-11.57c.1-.1.24-.17.38-.15a.4.4 0 01.31.25l5.29 12.88 8.6-11.23a.4.4 0 01.37-.16c.14.02.27.11.33.25l5.62 13.91 8.6-11.23a.4.4 0 01.37-.15c.14.02.26.1.32.24l5.64 13.6 8.6-10.57c.08-.1.2-.17.34-.16.13.01.26.09.31.2l3.08 5.36 113.82-67.09a.48.48 0 01.07-.03c.14-.06.3-.03.4.07l11.67 9.9 7.1-5.06c.15-.11.36-.1.5.02l49.8 43.06 2.73-.8a.39.39 0 01.39.08l12.15 10.93c.09.08.13.2.12.31l-2.24 59.66 8.05 6.47 1.18-58.5-6.5 3.48-.39-.72 7.11-3.81a.07.07 0 01.04-.02.37.37 0 01.43.08l4.34 3.98c.09.08.13.2.13.3l-.13 7.89.79-.34h-.26c0-15.68 2.68-40.25 23.52-58.38C435.3 8.5 448.95.48 448.95.48a.42.42 0 01.4-.01l.07.05 7.29 6.25c.07.07.13.16.13.27l11.36 149.05 31.88 26.6c.09.06.14.17.14.29l.35 7.93 14.68 11.8c.09.09.15.18.15.3l.65 11.43 4.4 3.37c.08.07.14.16.16.28l28.53 262.12c8.25 2.8 17.15 6.22 25.36 10.08 10.52 4.93 19.94 10.58 25.52 16.5h-1.13c-5.58-5.66-14.65-11.03-24.73-15.76-8.1-3.8-16.88-7.19-25.03-9.97l-.74-.24-.02-.01-.05-.02-.05-.02-.13-.04-.06-.02-.03-.01c-1.41-.48-2.8-.93-4.16-1.36l-.03-.02h-.03l-.13-.05-.09-.03h-.04l-.1-.04-.14-.04-.04-.01-.27-.1h-.03l-.03-.01-.08-.03-.15-.04-.09-.03-.05-.02-.05-.02-.1-.03-.19-.06h-.04a4.83 4.83 0 00-.36-.11v-.01l-.37-.11-.03-.01-.13-.05-.16-.05h-.04l-.36-.12-.36-.1-.05-.02-.17-.05-.1-.03-.03-.02-.06-.01-.09-.03-.15-.05-.06-.02h-.03l-.04-.02-.29-.09-.24-.06-.08-.02-.04-.01-.04-.02-.08-.02-.21-.07h-.02.02l.3.09.07.03.32.08.33.1.1.03.23.08.1.03.26.08.07.02.34.1.34.11.06.01.3.1.05.02.34.1.35.11.05.01.29.1.1.03.24.07.1.04.3.1h.02l.17.05.14.04.22.07.06.03c1.4.44 2.78.89 4.16 1.36l.1.03.17.06.07.03v.02l.74.22-.7.08-.04-.3-21.26-6.24.08.02.18.04.25.06.07.02.19.05h.07l.24.08.25.06.07.02.2.04.07.01.23.06.02.01 1.73.44.02.01.29.07.28.08h.06l.23.07.07.02.21.05.08.02.27.08.07.02.23.06.05.02.3.08.3.08h.04l.3.1.32.08h.01l.3.08.04.01.6.18.07.02.26.07h.03l.3.1.08.01.24.07.08.02h-.03l-.05-.02-.13-.03-.1-.04h-.06l-.03-.02-.05-.02-.25-.07h-.03l-.18-.06-.08-.01-.04-.01-.33-.1-.32-.09-.02-.01-.13-.03-.17-.05-.33-.09-.32-.08-.31-.1-.32-.08h-.04l-.12-.04-.11-.03h-.04l-.03-.02-.27-.08H532l-.07-.02-.17-.03-.04-.02h-.03l-.04-.02-.11-.02-.12-.04-.04-.01-.3-.08-.3-.08h-.01l-1.73-.44h-.02l-.15-.05-.08-.02h-.06l-.08-.03-.13-.02-.05-.02h-.02l-.03-.01-.22-.05-.2-.05-.04-.02h-.03l-.04-.01-.1-.03-.09-.02h-.04l-.03-.02a2.16 2.16 0 00-.24-.05h-.01l-.18-.05-.08-.02-45.9-10.93c-25.17-6.07-52.63-12.89-64.2-16.4-20.4-6.2-89.55-29.32-90.56-29.66l-3.23-.87a69.07 69.07 0 00-30.89-1.19l-2.63.5-1.16.27v.08l-.26-.03-22.63 5.23-.02.18-.49-.06-26.37 6.08.58.19.11.04.61.2.6.19.12.04.51.16.09.03.6.2.03.02.55.17.12.04.53.18h.04l.57.2.86.28zm153.96-1.93h.02l.18-.04h.06l.06-.03.1-.02h.07l.04-.02h.05l.06-.02.13-.02.06-.02h.02l-.08.02-.2.03-.08.02-.17.03-.1.02-.2.04-.02.01zm1.66-.34l.06-.01-.1.02.04-.01zm.59-.12h.05l.3-.07.22-.04.06-.01.04-.01-.1.02-.52.1-.06.01zm1.3-.26l.09-.02.24-.05.34-.07h.06l.02-.02h.04l.15-.03.54-.11.16-.03.12-.02.2-.04.32-.07.32-.06.18-.04.15-.03.2-.04.53-.1.22-.04.05-.02-.27.06-.73.14-.33.07-.65.13-.31.06-.7.14-.19.03-.08.02-.58.12-.12.03.04-.01zm24.26-4.8c20.94-4.12 45.47-8.9 45.47-8.9a.4.4 0 01.3.06l15.49 9.96-20.33-266.92-.3-.24.26-.32-9.22-121.04-.07.07-7.12-6.32 19.42 384.88-.81.04-19.46-385.65-26.94 21.36a16.5 16.5 0 00-6.24 12.97l.5 157.45a.4.4 0 01-.23.36l-7.82 3.91.1 8.36 13.82-6.66a.4.4 0 01.58.36l2.6 196.26-.56.12-1.08.2-1.71.35h-.03l-1.57.31-7.66 1.51-.25.05-1.3.26-1.24.24h-.02l-.54.12-.58.1-.53.11-.97.2-.97.18-.29.06h.06l.23-.06.6-.11-1.55-191.08-41.65-30.25-.26 7.22.1-.18 10.88 7.4h.02l20.51 13.94c.11.08.18.2.18.34l1.55 194.68 28.63-5.7z"/>
</svg>