<svg xmlns="http://www.w3.org/2000/svg" fill-rule="evenodd" stroke-linejoin="round" stroke-miterlimit="2" clip-rule="evenodd" viewBox="0 0 1181 35">
  <defs/>
  <path fill="#fff" d="M19.87 33.8c3.68-2.27 12.82-8.7 16.45-18a1.2 1.2 0 00-.68-1.55 1.22 1.22 0 00-1.56.7c-3.4 8.7-12.02 14.68-15.47 16.81a1.2 1.2 0 00-.4 1.66c.36.55 1.1.73 1.66.38zm1141.59-2.04c-3.46-2.13-12.08-8.1-15.48-16.82a1.22 1.22 0 00-1.56-.69 1.2 1.2 0 00-.68 1.56c3.63 9.28 12.77 15.72 16.45 18a1.2 1.2 0 001.27-2.04zM1177.63 3H664.67a1.2 1.2 0 110-2.4h514.16c.66 0 1.2.53 1.2 1.2v30.45a1.2 1.2 0 01-1.4 1.18s-16.12-2.58-25.48-17.92a1.2 1.2 0 112.05-1.25c7.14 11.7 18.5 15.5 22.43 16.5V2.98zM2.43 30.74c3.93-1 15.29-4.78 22.44-16.49a1.2 1.2 0 112.05 1.25c-9.36 15.34-25.5 17.92-25.5 17.92a1.2 1.2 0 01-1.4-1.17L.04 1.78c0-.67.54-1.2 1.2-1.2H515.4a1.2 1.2 0 010 2.4H2.43v27.75zm644-30.2a1.25 1.25 0 110 2.5 1.25 1.25 0 010-2.5zm-9.28 0a1.25 1.25 0 110 2.5 1.25 1.25 0 010-2.5zm-27.82 0a1.25 1.25 0 110 2.5 1.25 1.25 0 010-2.5zm18.54 0a1.25 1.25 0 110 2.5 1.25 1.25 0 010-2.5zm-37.1 0a1.25 1.25 0 110 2.5 1.25 1.25 0 010-2.5zm27.83 0a1.25 1.25 0 110 2.5 1.25 1.25 0 010-2.5zm-18.55 0a1.25 1.25 0 110 2.5 1.25 1.25 0 010-2.5zm-18.55 0a1.25 1.25 0 110 2.5 1.25 1.25 0 010-2.5zm-18.55 0a1.25 1.25 0 110 2.5 1.25 1.25 0 010-2.5zm9.28 0a1.25 1.25 0 110 2.5 1.25 1.25 0 010-2.5zm-18.55 0a1.25 1.25 0 110 2.5 1.25 1.25 0 010-2.5zm-18.55 0a1.25 1.25 0 110 2.5 1.25 1.25 0 010-2.5zm9.27 0a1.25 1.25 0 110 2.5 1.25 1.25 0 010-2.5z"/>
</svg>