<svg xmlns="http://www.w3.org/2000/svg" fill-rule="evenodd" stroke-linejoin="round" stroke-miterlimit="2" clip-rule="evenodd" viewBox="0 0 400 162">
  <path fill="#fff" fill-rule="nonzero" d="M229.13 150.02c1.04 0 1.99.24 2.83.73a5.25 5.25 0 012 2.05c.49.88.73 1.88.73 2.98s-.24 2.1-.73 2.98a5.3 5.3 0 01-4.83 2.8 5.36 5.36 0 01-4.85-2.8 6 6 0 01-.74-2.98 6 6 0 01.74-2.98 5.3 5.3 0 012-2.05c.85-.49 1.8-.73 2.85-.73zm-88.3 0c1.04 0 1.99.24 2.83.73a5.25 5.25 0 012 2.05c.48.88.73 1.88.73 2.98s-.25 2.1-.73 2.98a5.3 5.3 0 01-4.83 2.8 5.36 5.36 0 01-4.85-2.8 6.01 6.01 0 01-.74-2.98c0-1.1.25-2.1.73-2.98a5.3 5.3 0 012-2.05c.86-.49 1.8-.73 2.86-.73zm-13.53.05a5.5 5.5 0 013.36.99c.9.66 1.48 1.56 1.77 2.7h-1.92c-.24-.61-.64-1.1-1.2-1.46a3.58 3.58 0 00-1.99-.54c-.7 0-1.33.16-1.9.5-.55.32-.99.8-1.3 1.4a4.6 4.6 0 00-.47 2.14c0 .86.16 1.6.48 2.22.32.62.77 1.09 1.35 1.41.58.33 1.25.49 2.02.49.93 0 1.74-.3 2.4-.87a3.69 3.69 0 001.22-2.39h-4.14v-1.34h5.67v1.74a5.4 5.4 0 01-.88 2.26 5.07 5.07 0 01-1.84 1.62c-.76.4-1.63.6-2.61.6-1.1 0-2.07-.24-2.9-.73a5.02 5.02 0 01-1.96-2.03 6.29 6.29 0 01-.68-2.98c0-1.12.23-2.11.68-2.98a4.98 4.98 0 011.95-2.03c.83-.48 1.8-.72 2.9-.72zm134.9 8.36a2.9 2.9 0 01-1.61 2.68c-.54.3-1.2.44-2 .44a5 5 0 01-2.06-.41c-.6-.27-1.09-.65-1.45-1.14a3.24 3.24 0 01-.62-1.7h1.95a2 2 0 00.63 1.27c.36.35.86.52 1.47.52.56 0 .99-.15 1.29-.44.3-.3.45-.68.45-1.15 0-.4-.1-.74-.33-1s-.5-.47-.83-.62a14.9 14.9 0 00-1.36-.5c-.7-.23-1.27-.45-1.72-.68a2.8 2.8 0 01-1.59-2.65c0-.6.15-1.14.45-1.6.3-.45.73-.8 1.28-1.06.55-.25 1.2-.37 1.92-.37a4.2 4.2 0 012.73.83 3.13 3.13 0 011.16 2.17H260a1.92 1.92 0 00-.6-1.1c-.33-.3-.77-.45-1.33-.45-.51 0-.92.13-1.23.4-.31.25-.47.63-.47 1.12 0 .38.11.7.32.95.22.25.48.44.8.59.33.14.78.31 1.34.5.72.23 1.3.45 1.75.68a2.89 2.89 0 011.62 2.72zm-46.6-8.36a5.5 5.5 0 013.36.99c.9.66 1.48 1.56 1.77 2.7h-1.92c-.24-.61-.64-1.1-1.2-1.46a3.58 3.58 0 00-1.99-.54c-.7 0-1.33.16-1.9.5-.55.32-.99.8-1.3 1.4a4.6 4.6 0 00-.47 2.14c0 .86.16 1.6.48 2.22.32.62.77 1.09 1.35 1.41.58.33 1.25.49 2.02.49a3.56 3.56 0 003.62-3.26h-4.14v-1.34h5.67v1.74a5.4 5.4 0 01-.88 2.26 5.06 5.06 0 01-1.84 1.62c-.76.4-1.63.6-2.61.6-1.1 0-2.07-.24-2.9-.73a5.02 5.02 0 01-1.95-2.03 6.29 6.29 0 01-.7-2.98c0-1.12.24-2.11.7-2.98a4.98 4.98 0 011.94-2.03c.83-.48 1.8-.72 2.9-.72zm-34.85.1v11.27h-1.82v-11.28h1.82zm-29.59 0v11.27h-1.82v-11.28h1.82zm88.3 0v11.27h-1.82v-11.28h1.82zm10.05 8.82h-4.76l-.86 2.45h-1.95l4.15-11.1h2.1l4.13 11.1h-1.95l-.86-2.45zm-73.9 2.45h-1.82l-5.48-8.32v8.32h-1.82v-11.26h1.82l5.48 8.35v-8.35h1.82v11.26zm15.19-2.45h-4.76l-.86 2.45h-1.95l4.15-11.1h2.1l4.13 11.1h-1.95l-.86-2.45zm-29.6 0h-4.75l-.87 2.45h-1.94l4.15-11.1h2.1l4.13 11.1h-1.95l-.86-2.45zm67.93-7.28c-.72 0-1.37.17-1.93.5-.57.33-1 .8-1.32 1.42a4.7 4.7 0 00-.47 2.15c0 .82.16 1.54.47 2.16.31.62.75 1.09 1.32 1.42.56.33 1.2.5 1.93.5.71 0 1.35-.17 1.9-.5.57-.33 1-.8 1.32-1.42a4.7 4.7 0 00.47-2.16 4.7 4.7 0 00-.47-2.15 3.39 3.39 0 00-1.31-1.42c-.56-.33-1.2-.5-1.91-.5zm-88.3 0c-.72 0-1.37.17-1.93.5-.57.33-1 .8-1.32 1.42a4.7 4.7 0 00-.47 2.15c0 .82.16 1.54.47 2.16.31.62.75 1.09 1.32 1.42.56.33 1.2.5 1.93.5.71 0 1.35-.17 1.9-.5.57-.33 1-.8 1.32-1.42a4.7 4.7 0 00.47-2.16 4.7 4.7 0 00-.47-2.15 3.39 3.39 0 00-1.31-1.42c-.56-.33-1.2-.5-1.91-.5zm59.9 4.53c0-.46.15-.85.47-1.17.32-.32.7-.48 1.16-.48.46 0 .85.16 1.16.48.32.31.48.7.48 1.17 0 .46-.16.84-.48 1.15-.31.32-.7.47-1.16.47-.46 0-.84-.15-1.16-.47-.32-.3-.47-.7-.47-1.15zm-40.04 1.35l-1.86-5.27-1.87 5.27h3.73zm29.6 0l-1.87-5.27-1.87 5.27h3.74zm58.7 0l-1.86-5.27-1.87 5.27H249zm134.67-3.4h14.9a1.43 1.43 0 000-2.86h-14.9a1.43 1.43 0 000 2.86zm-382.23 0h14.9a1.43 1.43 0 000-2.86H1.44a1.43 1.43 0 000 2.86zm248.22-6.52l-3.53 1.8v-1.27l3.53-1.95v1.42zm-90.8.26l-2.3 1.34v-1.25l2.3-1.32 2.26 1.32v1.25l-2.27-1.34zm89.77-19.62l121.32-.03a15.5 15.5 0 0115.44 14.07l13.19-.01a1.43 1.43 0 010 2.86l-14.55.01c-.79 0-1.43-.64-1.43-1.43 0-6.98-5.67-12.64-12.65-12.63H351.6c-.08.02-.17.02-.26.02H248.62l-199.97.05c-.12 0-.25-.02-.36-.05H30.05a12.64 12.64 0 00-12.64 12.65c0 .79-.64 1.43-1.43 1.43H1.43a1.43 1.43 0 010-2.86h13.19a15.5 15.5 0 0115.43-14.08h218.57zm60.62-14.95h40.2a1.43 1.43 0 010 2.86h-41.5c-.73 0-1.34-.54-1.43-1.25 0 0-1.05-8.64 1.27-18.47 2.36-9.97 8.17-21.12 21.85-25.99 5.34-1.9 8.73-2.95 11.16-3.95 2.22-.9 3.57-1.76 4.96-3.3 1.96-2.17 2.97-5.53 2.97-8.7 0-6.24-4.9-11.14-11.14-11.14l-6.58.05h-11.14a1.43 1.43 0 010-2.86h11.12l6.59-.06c7.85 0 14.01 6.17 14.01 14.02 0 3.86-1.3 7.95-3.7 10.62-3.19 3.52-6.15 4.06-17.29 8.02-12.58 4.47-17.86 14.78-20.02 23.95a56.73 56.73 0 00-1.33 16.2zm-98.41 0h40.19a1.43 1.43 0 010 2.86h-41.5c-.73 0-1.34-.54-1.42-1.25 0 0-1.06-8.64 1.27-18.47 2.35-9.97 8.17-21.12 21.85-25.99 5.33-1.9 8.72-2.95 11.16-3.95 2.21-.9 3.57-1.76 4.95-3.3 1.97-2.17 2.97-5.53 2.97-8.7 0-6.24-4.9-11.14-11.13-11.14l-6.58.05h-11.15a1.43 1.43 0 010-2.86h11.12l6.6-.06c7.84 0 14 6.17 14 14.02 0 3.86-1.3 7.95-3.7 10.62-3.18 3.52-6.14 4.06-17.28 8.02-12.58 4.47-17.86 14.78-20.03 23.95a56.72 56.72 0 00-1.32 16.2zm68.36 2.86a22.3 22.3 0 0022.3-22.3V82.24a22.3 22.3 0 10-44.6 0v11.68a22.3 22.3 0 0022.3 22.3zm98.5 0A22.3 22.3 0 00400 93.92V82.24a22.3 22.3 0 10-44.6 0v11.68a22.3 22.3 0 0022.3 22.3zM61.88 68.55a13.95 13.95 0 01.03-27.9h18.25a1.43 1.43 0 010 2.85H61.9a11.1 11.1 0 10.04 22.19l7.97.24c21.08-.33 28.88 24.33 18.22 39.2C83.6 111.43 75.76 116 64.16 116h-13.6a1.43 1.43 0 010-2.86h13.6c10.45 0 17.56-4 21.64-9.7 9.41-13.1 2.74-34.98-15.88-34.66h-.07l-7.98-.24zm89.35-24.87h16.85c11.9 0 21.55 9.65 21.55 21.55v26.31c0 11.9-9.64 21.55-21.55 21.55h-17.56a1.43 1.43 0 000 2.87h17.56a24.41 24.41 0 0024.42-24.42v-26.3a24.41 24.41 0 00-24.42-24.42h-16.85a1.43 1.43 0 000 2.86zM.27 66.46a1.42 1.42 0 01-.27-.83V42.25c0-.79.64-1.43 1.43-1.43H42.7a1.43 1.43 0 010 2.86H2.86v21.95c0 .08 0 .16-.02.24h19.82a1.43 1.43 0 010 2.86H2.86v44.36h39.36a1.43 1.43 0 010 2.86H1.43c-.79 0-1.43-.64-1.43-1.43V67.3c0-.32.1-.6.27-.84zm140.22-24.3v51.02a19.92 19.92 0 01-39.83 0V42.16a1.43 1.43 0 00-2.87 0v51.02a22.78 22.78 0 0045.56 0V42.16a1.43 1.43 0 00-2.86 0zm138.7 71.2a19.44 19.44 0 01-19.44-19.44V82.24a19.44 19.44 0 1138.88 0v11.68c0 10.74-8.7 19.44-19.44 19.44zm98.5 0a19.44 19.44 0 01-19.43-19.44V82.24a19.44 19.44 0 0138.88 0v11.68c0 10.74-8.7 19.44-19.44 19.44zM201.8 78.82h.12a1.43 1.43 0 000-2.86h-.12a1.43 1.43 0 000 2.86zm191.49-37.64a19.41 19.41 0 01-31.16-.05 1.43 1.43 0 10-2.29 1.7 22.27 22.27 0 0017.9 9c7.29 0 13.76-3.51 17.83-8.93a1.43 1.43 0 00-2.28-1.72zm-98.51 0a19.41 19.41 0 01-31.15-.05 1.43 1.43 0 00-2.3 1.7 22.27 22.27 0 0017.9 9c7.29 0 13.77-3.51 17.83-8.93a1.43 1.43 0 00-2.28-1.72zm-46.15-14.86H30.05a15.5 15.5 0 01-15.43-14.08H1.43a1.43 1.43 0 010-2.86h14.55c.8 0 1.43.64 1.43 1.43 0 6.98 5.66 12.65 12.64 12.65H48.3c.11-.04.24-.05.36-.05l199.97.05h102.72c.1 0 .18 0 .26.02h18.34c6.98 0 12.64-5.65 12.65-12.63 0-.8.64-1.43 1.43-1.43h14.55a1.43 1.43 0 010 2.87h-13.19a15.5 15.5 0 01-15.44 14.05l-121.32-.02zM1.43 3.3h14.9a1.43 1.43 0 000-2.86H1.44a1.43 1.43 0 000 2.86zm382.23 0h14.9a1.43 1.43 0 000-2.86h-14.9a1.43 1.43 0 000 2.86z"/>
</svg>